<?xml version="1.0" encoding="UTF-8" standalone="no"?>
<!-- Created with Inkscape (http://www.inkscape.org/) -->

<svg
   xmlns:dc="http://purl.org/dc/elements/1.1/"
   xmlns:cc="http://creativecommons.org/ns#"
   xmlns:rdf="http://www.w3.org/1999/02/22-rdf-syntax-ns#"
   xmlns:svg="http://www.w3.org/2000/svg"
   xmlns="http://www.w3.org/2000/svg"
   xmlns:sodipodi="http://sodipodi.sourceforge.net/DTD/sodipodi-0.dtd"
   xmlns:inkscape="http://www.inkscape.org/namespaces/inkscape"
   width="8in"
   height="8in"
   viewBox="0 0 203.2 203.20001"
   version="1.1"
   id="svg1072"
   inkscape:version="0.92.2 (5c3e80d, 2017-08-06)"
   sodipodi:docname="Globe.svg">
  <defs
     id="defs1066">
    <inkscape:path-effect
       effect="bspline"
       id="path-effect1097-0-3-0"
       is_visible="true"
       weight="33.333333"
       steps="2"
       helper_size="0"
       apply_no_weight="true"
       apply_with_weight="true"
       only_selected="false" />
    <inkscape:path-effect
       effect="bspline"
       id="path-effect1097"
       is_visible="true"
       weight="33.333333"
       steps="2"
       helper_size="0"
       apply_no_weight="true"
       apply_with_weight="true"
       only_selected="false" />
    <inkscape:path-effect
       effect="bspline"
       id="path-effect1097-0"
       is_visible="true"
       weight="33.333333"
       steps="2"
       helper_size="0"
       apply_no_weight="true"
       apply_with_weight="true"
       only_selected="false" />
    <inkscape:path-effect
       effect="bspline"
       id="path-effect1097-0-3"
       is_visible="true"
       weight="33.333333"
       steps="2"
       helper_size="0"
       apply_no_weight="true"
       apply_with_weight="true"
       only_selected="false" />
    <inkscape:path-effect
       effect="bspline"
       id="path-effect1097-4-95"
       is_visible="true"
       weight="33.333333"
       steps="2"
       helper_size="0"
       apply_no_weight="true"
       apply_with_weight="true"
       only_selected="false" />
    <inkscape:path-effect
       effect="bspline"
       id="path-effect1097-2"
       is_visible="true"
       weight="33.333333"
       steps="2"
       helper_size="0"
       apply_no_weight="true"
       apply_with_weight="true"
       only_selected="false" />
    <inkscape:path-effect
       effect="bspline"
       id="path-effect1097-4-8"
       is_visible="true"
       weight="33.333333"
       steps="2"
       helper_size="0"
       apply_no_weight="true"
       apply_with_weight="true"
       only_selected="false" />
    <inkscape:path-effect
       effect="bspline"
       id="path-effect1097-0-39"
       is_visible="true"
       weight="33.333333"
       steps="2"
       helper_size="0"
       apply_no_weight="true"
       apply_with_weight="true"
       only_selected="false" />
    <inkscape:path-effect
       effect="bspline"
       id="path-effect1097-4-5"
       is_visible="true"
       weight="33.333333"
       steps="2"
       helper_size="0"
       apply_no_weight="true"
       apply_with_weight="true"
       only_selected="false" />
    <inkscape:path-effect
       effect="bspline"
       id="path-effect1097-4-5-8"
       is_visible="true"
       weight="33.333333"
       steps="2"
       helper_size="0"
       apply_no_weight="true"
       apply_with_weight="true"
       only_selected="false" />
    <inkscape:path-effect
       effect="bspline"
       id="path-effect1097-4-8-7"
       is_visible="true"
       weight="33.333333"
       steps="2"
       helper_size="0"
       apply_no_weight="true"
       apply_with_weight="true"
       only_selected="false" />
    <inkscape:path-effect
       effect="bspline"
       id="path-effect1097-4-95-0"
       is_visible="true"
       weight="33.333333"
       steps="2"
       helper_size="0"
       apply_no_weight="true"
       apply_with_weight="true"
       only_selected="false" />
  </defs>
  <sodipodi:namedview
     id="base"
     pagecolor="#ffffff"
     bordercolor="#666666"
     borderopacity="1.0"
     inkscape:pageopacity="0.0"
     inkscape:pageshadow="2"
     inkscape:zoom="0.7"
     inkscape:cx="507.0491"
     inkscape:cy="466.92166"
     inkscape:document-units="mm"
     inkscape:current-layer="layer1"
     showgrid="false"
     units="in"
     inkscape:window-width="1920"
     inkscape:window-height="1001"
     inkscape:window-x="-9"
     inkscape:window-y="-9"
     inkscape:window-maximized="1" />
  <metadata
     id="metadata1069">
    <rdf:RDF>
      <cc:Work
         rdf:about="">
        <dc:format>image/svg+xml</dc:format>
        <dc:type
           rdf:resource="http://purl.org/dc/dcmitype/StillImage" />
        <dc:title></dc:title>
      </cc:Work>
    </rdf:RDF>
  </metadata>
  <g
     inkscape:label="Layer 1"
     inkscape:groupmode="layer"
     id="layer1"
     transform="translate(0,-93.79998)">
    <g
       id="g5224"
       transform="matrix(3.3181482,0,0,3.3181484,-29.788547,15.952743)"
       style="stroke-width:0.30137292">
      <circle
         r="29.765625"
         cy="54.188847"
         cx="39.599728"
         id="path815-4"
         style="opacity:1;fill:#244148;fill-opacity:1;stroke:#060606;stroke-width:0.07986382;stroke-miterlimit:4;stroke-dasharray:none;stroke-dashoffset:0;stroke-opacity:1" />
      <path
         inkscape:original-d="m 19.042908,32.551735 c -2.139754,6.198798 -4.279106,12.397774 -6.418055,18.596929 0.779831,5.021215 1.652959,10.037297 2.480043,15.056222 1.676385,3.481252 3.353035,6.962394 5.030152,10.443866"
         inkscape:path-effect="#path-effect1097-0-3-0"
         inkscape:connector-curvature="0"
         id="path1095-3-3-0"
         d="m 19.042908,32.551735 c -2.139339,6.198941 -4.278691,12.397917 -4.935453,18.004241 -0.656762,5.606324 0.17072,10.629925 1.422401,14.879982 1.25168,4.250057 2.928328,7.7312 4.605192,11.212794"
         style="fill:none;stroke:#ffffff;stroke-width:0.07973825px;stroke-linecap:butt;stroke-linejoin:miter;stroke-opacity:0.82999998" />
      <path
         inkscape:connector-curvature="0"
         id="path1093"
         d="m 39.761329,24.268006 0.106307,59.649359"
         style="fill:none;stroke:#ffffff;stroke-width:0.07973825px;stroke-linecap:butt;stroke-linejoin:miter;stroke-opacity:0.82999998" />
      <path
         inkscape:original-d="m 44.677098,24.368153 c 1.6509,8.113478 3.301537,16.227222 4.951911,24.34123 -0.342329,6.75609 -0.747196,13.51211 -1.121186,20.26857 -0.996391,4.76714 -1.992961,9.53416 -2.989833,14.30166"
         inkscape:path-effect="#path-effect1097"
         inkscape:connector-curvature="0"
         id="path1095"
         d="m 44.677098,24.368153 c 1.650596,8.11354 3.301233,16.227284 3.939758,23.661436 0.638526,7.434153 0.264711,14.19189 -0.420454,19.953677 -0.685165,5.761786 -1.681734,10.528806 -2.678412,15.296347"
         style="fill:none;stroke:#ffffff;stroke-width:0.07973823px;stroke-linecap:butt;stroke-linejoin:miter;stroke-opacity:0.82999998" />
      <path
         inkscape:original-d="m 50.773927,26.573492 c 2.354265,7.519198 4.708154,15.038644 7.06167,22.558333 -0.488179,6.261228 -1.065539,12.522391 -1.598867,18.783984 -1.420903,4.417968 -2.842061,8.835817 -4.263649,13.254105"
         inkscape:path-effect="#path-effect1097-0"
         inkscape:connector-curvature="0"
         id="path1095-3"
         d="m 50.773927,26.573492 c 2.353853,7.519327 4.707744,15.038772 5.618394,21.927275 0.910651,6.888503 0.37739,13.153419 -0.599684,18.493172 -0.977074,5.339753 -2.398231,9.757602 -3.819556,14.175975"
         style="fill:none;stroke:#ffffff;stroke-width:0.07973823px;stroke-linecap:butt;stroke-linejoin:miter;stroke-opacity:0.82999998" />
      <path
         inkscape:original-d="m 60.125249,32.706988 c 2.177644,6.198612 4.354878,12.397399 6.531702,18.596366 -0.79364,5.021071 -1.682229,10.036989 -2.523958,15.055772 -1.70607,3.481145 -3.412409,6.962179 -5.119223,10.443544"
         inkscape:path-effect="#path-effect1097-0-3"
         inkscape:connector-curvature="0"
         id="path1095-3-3"
         d="m 60.125249,32.706988 c 2.177224,6.19876 4.354457,12.397547 5.022869,18.003571 0.668413,5.606024 -0.173763,10.629722 -1.447608,14.879654 -1.273845,4.249932 -2.980181,7.730967 -4.68674,11.212457"
         style="fill:none;stroke:#ffffff;stroke-width:0.07973825px;stroke-linecap:butt;stroke-linejoin:miter;stroke-opacity:0.82999998" />
      <path
         sodipodi:nodetypes="cccc"
         inkscape:original-d="m 67.925774,60.467209 c -3.379188,0.731996 -6.758592,1.464242 -10.138205,2.196738 -11.001218,0.128089 -22.002911,0.256425 -33.004835,0.385034 -4.668932,-0.5537 -9.337954,-1.107121 -14.007489,-1.660313"
         inkscape:path-effect="#path-effect1097-4-95"
         inkscape:connector-curvature="0"
         id="path1095-7-8"
         d="M 67.925774,60.467209 C 64.546628,61.1994 61.167224,61.931646 53.976789,62.361967 46.786354,62.792287 35.784661,62.920633 27.949215,62.7081 20.113768,62.495567 15.444746,61.942146 10.775245,61.388668"
         style="fill:none;stroke:#ffffff;stroke-width:0.07973823px;stroke-linecap:butt;stroke-linejoin:miter;stroke-opacity:0.82999998" />
      <path
         inkscape:original-d="m 34.912798,24.576257 c -1.6509,8.124993 -3.301537,16.250253 -4.951911,24.375777 0.342329,6.765681 0.747196,13.531291 1.121186,20.297341 0.996391,4.7739 1.992961,9.54769 2.989833,14.32196"
         inkscape:path-effect="#path-effect1097-2"
         inkscape:connector-curvature="0"
         id="path1095-9"
         d="m 34.912798,24.576257 c -1.650596,8.125055 -3.301233,16.250315 -3.939758,23.695022 -0.638525,7.444707 -0.264711,14.212032 0.420453,19.981994 0.685164,5.769962 1.681734,10.543752 2.678413,15.318062"
         style="fill:none;stroke:#ffffff;stroke-width:0.07973823px;stroke-linecap:butt;stroke-linejoin:miter;stroke-opacity:0.82999998" />
      <path
         sodipodi:nodetypes="cccc"
         inkscape:original-d="m 64.991358,69.653302 c -3.00619,0.580477 -6.01257,1.161165 -9.019143,1.742061 -9.761213,-0.01068 -19.52285,-0.02116 -29.284697,-0.03142 -4.135749,-0.517001 -8.27158,-1.03377 -12.407869,-1.55035"
         inkscape:path-effect="#path-effect1097-4-8"
         inkscape:connector-curvature="0"
         id="path1095-7-0"
         d="M 64.991358,69.653302 C 61.9852,70.233946 58.97882,70.814633 52.594911,71.099761 46.211002,71.38489 36.449365,71.374417 29.500552,71.110799 22.551739,70.847182 18.415908,70.330414 14.279649,69.813593"
         style="fill:none;stroke:#ffffff;stroke-width:0.07973823px;stroke-linecap:butt;stroke-linejoin:miter;stroke-opacity:0.82999998" />
      <path
         inkscape:original-d="m 27.225242,27.041454 c -2.354265,7.370945 -4.708154,14.74214 -7.06167,22.11358 0.488179,6.137771 1.065539,12.275499 1.598867,18.413634 1.420903,4.330856 2.842062,8.661602 4.263649,12.992777"
         inkscape:path-effect="#path-effect1097-0-39"
         inkscape:connector-curvature="0"
         id="path1095-3-0"
         d="m 27.225242,27.041454 c -2.353853,7.371077 -4.707743,14.742271 -5.618401,21.494882 -0.910658,6.752611 -0.377383,12.894167 0.59969,18.128634 0.977073,5.234468 2.398231,9.565214 3.819557,13.896475"
         style="fill:none;stroke:#ffffff;stroke-width:0.07973823px;stroke-linecap:butt;stroke-linejoin:miter;stroke-opacity:0.82999998" />
      <path
         sodipodi:nodetypes="cccc"
         inkscape:original-d="m 57.304834,78.113402 c -2.090235,0.376883 -4.180607,0.753902 -6.271113,1.131057 -6.786438,-0.01403 -13.573169,-0.02792 -20.36005,-0.04168 -2.875183,-0.340595 -5.750428,-0.681035 -8.625989,-1.021354"
         inkscape:path-effect="#path-effect1097-4-5"
         inkscape:connector-curvature="0"
         id="path1095-7-3"
         d="m 57.304834,78.113402 c -2.090216,0.376991 -4.180587,0.75401 -8.619069,0.935587 -4.438482,0.181577 -11.225213,0.167684 -16.056255,-0.0095 -4.831041,-0.177165 -7.706286,-0.517606 -10.581828,-0.858083"
         style="fill:none;stroke:#ffffff;stroke-width:0.07973821px;stroke-linecap:butt;stroke-linejoin:miter;stroke-opacity:0.82999998" />
      <path
         sodipodi:nodetypes="cccc"
         inkscape:original-d="m 58.10967,30.836662 c -2.071535,-0.375972 -4.143204,-0.75208 -6.215004,-1.128324 -6.725099,0.01699 -13.450489,0.03384 -20.176026,0.05055 -2.849027,0.341848 -5.698117,0.683541 -8.547521,1.025113"
         inkscape:path-effect="#path-effect1097-4-5-8"
         inkscape:connector-curvature="0"
         id="path1095-7-3-0"
         d="m 58.10967,30.836662 c -2.071515,-0.37608 -4.143184,-0.752188 -8.541644,-0.931832 -4.398459,-0.179643 -11.123849,-0.162792 -15.911141,0.01648 -4.787291,0.17927 -7.636381,0.520964 -10.485766,0.862694"
         style="fill:none;stroke:#ffffff;stroke-width:0.07973823px;stroke-linecap:butt;stroke-linejoin:miter;stroke-opacity:0.82999998" />
      <path
         sodipodi:nodetypes="cccc"
         inkscape:original-d="m 64.044431,39.147825 c -2.909004,-0.5796 -5.81819,-1.15941 -8.727565,-1.739429 -9.445074,0.01353 -18.890557,0.02686 -28.336244,0.03997 -4.001648,0.518209 -8.003376,1.036185 -12.005548,1.553972"
         inkscape:path-effect="#path-effect1097-4-8-7"
         inkscape:connector-curvature="0"
         id="path1095-7-0-6"
         d="M 64.044431,39.147825 C 61.13546,38.568059 58.226274,37.988249 52.049033,37.704984 45.871792,37.421719 36.426309,37.435042 29.702626,37.700688 22.978943,37.966335 18.977215,38.48431 14.975074,39.002338"
         style="fill:none;stroke:#ffffff;stroke-width:0.07973823px;stroke-linecap:butt;stroke-linejoin:miter;stroke-opacity:0.82999998" />
      <path
         sodipodi:nodetypes="cccc"
         inkscape:original-d="m 68.197758,47.677301 c -3.390374,-0.678317 -6.780964,-1.35688 -10.171766,-2.035689 -11.001867,0.04638 -22.004212,0.09253 -33.006791,0.138406 -4.659565,0.62767 -9.319223,1.255064 -13.979399,1.882235"
         inkscape:path-effect="#path-effect1097-4-95-0"
         inkscape:connector-curvature="0"
         id="path1095-7-8-8"
         d="m 68.197758,47.677301 c -3.390335,-0.678512 -6.780925,-1.357075 -13.977279,-1.673315 -7.196355,-0.31624 -18.1987,-0.270105 -26.029791,0.06666 -7.83109,0.336761 -12.490749,0.964154 -17.150886,1.591611"
         style="fill:none;stroke:#ffffff;stroke-width:0.07973823px;stroke-linecap:butt;stroke-linejoin:miter;stroke-opacity:0.82999998" />
      <path
         inkscape:connector-curvature="0"
         id="path1093-0"
         d="M 69.499703,54.371368 9.850344,54.477675"
         style="fill:none;stroke:#ffffff;stroke-width:0.07973825px;stroke-linecap:butt;stroke-linejoin:miter;stroke-opacity:0.82999998" />
      <g
         style="fill:#84ac6a;fill-opacity:1;stroke-width:0.30137292"
         transform="translate(-27.432534,-48.14215)"
         id="g1212">
        <path
           style="fill:#84ac6a;fill-opacity:1;stroke:#000000;stroke-width:0.07973825px;stroke-linecap:butt;stroke-linejoin:miter;stroke-opacity:1"
           d="m 48.494638,110.67131 c 0,0 0.256339,0.0592 0.342482,-0.009 0.174613,-0.1367 -0.08827,-0.51524 0.114153,-0.61618 0.159168,-0.0792 0.362723,0.0854 0.504212,0.18828 0.212703,0.15475 0.466147,0.60761 0.466147,0.60761"
           id="path7178"
           inkscape:connector-curvature="0"
           sodipodi:nodetypes="csssc" />
        <g
           style="fill:#84ac6a;fill-opacity:1;stroke-width:0.30137292"
           id="g1194">
          <path
             sodipodi:nodetypes="ssssssssssssssssssssssssssssssssssssssssssssss"
             inkscape:connector-curvature="0"
             id="path7172"
             d="m 62.821202,130.95776 c 0.239493,-0.50521 -0.911613,-0.69019 -1.214137,-1.16068 -0.240182,-0.37354 -0.458582,-0.8144 -0.437098,-1.25743 0.02066,-0.4251 0.338963,-0.78211 0.534225,-1.1607 0.178877,-0.34684 0.342809,-0.70752 0.582795,-1.0156 0.470125,-0.60354 1.227295,-0.9594 1.651236,-1.59596 0.172802,-0.25946 0.295113,-0.5624 0.33995,-0.87052 0.02796,-0.19211 -0.130441,-0.40421 -0.04852,-0.58035 0.175578,-0.37751 0.640584,-0.55102 1.019873,-0.72543 0.181796,-0.0836 0.397205,-0.0702 0.582794,-0.14509 0.329415,-0.13288 0.687282,-0.26689 0.922745,-0.53199 0.547815,-0.61679 0.860125,-1.45708 0.971314,-2.27303 0.03289,-0.24173 -0.17237,-0.49327 -0.09714,-0.72544 0.123082,-0.37984 0.593516,-0.54511 0.825618,-0.87051 0.285111,-0.39973 0.655848,-0.81608 0.679922,-1.30579 0.01275,-0.26013 -0.119372,-0.52927 -0.291403,-0.72544 -0.36719,-0.41868 -0.938636,-0.61584 -1.456971,-0.82216 -0.557816,-0.22203 -1.188758,-0.21773 -1.748363,-0.43526 -0.188961,-0.0735 -0.351946,-0.20155 -0.534226,-0.29017 -0.475645,-0.23121 -0.946037,-0.49108 -1.456971,-0.62871 -0.393474,-0.10598 -0.906298,0.12098 -1.214137,-0.14508 -0.189794,-0.16405 -0.08717,-0.49906 -0.194265,-0.72544 -0.178106,-0.37633 -0.415769,-0.73974 -0.728491,-1.01561 -0.455498,-0.40182 -1.019482,-0.69748 -1.602667,-0.87052 -0.389095,-0.11545 -0.841396,0.0636 -1.214137,-0.0967 -0.420889,-0.18098 -0.637058,-0.6677 -1.019883,-0.91888 -0.356891,-0.23416 -0.771673,-0.36685 -1.165579,-0.53199 -0.415636,-0.17425 -0.815873,-0.42302 -1.262706,-0.48362 -0.499575,-0.0678 -1.021651,0.28613 -1.50554,0.14508 -0.276621,-0.0807 -0.422749,-0.40239 -0.679922,-0.53197 -0.269847,-0.13598 -0.571899,-0.2325 -0.874187,-0.24182 -0.545851,-0.0168 -1.184862,-0.0117 -1.602667,0.33854 -0.400176,0.33542 -0.456608,0.94537 -0.582784,1.45087 -0.109966,0.44056 -0.105721,0.90193 -0.145696,1.35414 -0.04122,0.46681 -0.04307,0.937 -0.09714,1.40251 -0.081,0.69767 -0.498444,1.39522 -0.339961,2.07958 0.07565,0.32687 0.391521,0.54603 0.582795,0.82216 0.509885,0.7361 0.97227,1.50519 1.50554,2.22467 0.382855,0.51654 0.71486,1.09306 1.214137,1.49923 0.790628,0.64318 2.070881,0.61758 2.719688,1.40251 0.696707,0.84289 0.53145,2.12376 0.922745,3.14355 0.429029,1.11811 0.837675,2.27916 1.554098,3.24027 0.443955,0.59559 1.143839,0.95622 1.651236,1.49924 0.4633,0.49582 0.706278,1.20652 1.262706,1.59596 0.335068,0.23451 0.765856,0.29813 1.165579,0.38689 0.270454,0.0601 0.707295,0.34625 0.825587,0.0967 z"
             style="fill:#84ac6a;fill-opacity:1;stroke:#000000;stroke-width:0.07973825px;stroke-linecap:butt;stroke-linejoin:miter;stroke-opacity:1" />
          <path
             sodipodi:nodetypes="csssssssssssssssssssssssssssssssssssssssssssssssssssssssssssssssssssssssssssssssssssssssssssssssssssssssssssssssssssssssssssssssssc"
             inkscape:connector-curvature="0"
             id="path7174"
             d="m 49.999886,110.21033 c 0,0 -0.516813,-0.67106 -0.898497,-0.72543 -0.269354,-0.0384 -0.4832,0.35115 -0.75277,0.31435 -0.49094,-0.067 -0.947096,-0.47597 -1.165579,-0.91889 -0.296223,-0.60051 0.400793,-1.48887 -0.02426,-2.00703 -0.387687,-0.47261 -1.451513,0.11717 -1.796932,-0.3869 -0.457544,-0.66769 0.860824,-1.73652 0.388529,-2.39394 -0.224536,-0.31255 -0.797114,-0.36724 -1.141299,-0.19344 -0.209859,0.10596 -0.242289,0.40609 -0.315672,0.62871 -0.07432,0.22536 0.05561,0.54249 -0.121416,0.70125 -0.18082,0.16221 -0.501251,0.13507 -0.728491,0.0483 -0.400855,-0.15304 -0.724934,-0.52785 -0.898466,-0.91888 -0.272047,-0.61303 -0.129137,-1.33686 -0.121407,-2.00703 0.0072,-0.58232 -0.12117,-1.22286 0.145696,-1.74105 0.165062,-0.32051 0.481042,-0.59168 0.825618,-0.701258 0.526363,-0.16738 1.22563,0.495998 1.651236,0.145098 0.187974,-0.154986 -0.120029,-0.576588 0.07288,-0.725441 0.336631,-0.25974 0.874783,0.01853 1.262706,0.193451 0.298321,0.134553 0.628578,0.32695 0.75277,0.62871 0.129507,0.31467 -0.229769,0.70223 -0.09714,1.01561 0.145315,0.34336 0.529435,0.84611 0.874176,0.70125 0.397,-0.16682 0.126176,-0.85253 0.121417,-1.2816 -0.0051,-0.48688 -0.289953,-0.978847 -0.169986,-1.450872 0.138285,-0.544129 0.564755,-0.989572 0.971314,-1.378327 0.388684,-0.371661 1.101623,-0.399534 1.359844,-0.870515 0.162903,-0.297123 -0.134564,-0.704702 0,-1.015571 0.158658,-0.366533 0.601883,-0.529286 0.874187,-0.82216 0.332375,-0.357474 0.520729,-0.858898 0.922745,-1.13651 0.273445,-0.188825 0.705897,-0.08598 0.947035,-0.31436 0.25816,-0.244457 0.141749,-0.735573 0.388519,-0.991424 0.293757,-0.304584 0.766534,-0.364844 1.165579,-0.507811 0.332684,-0.119188 0.835692,-0.590702 1.019883,-0.290171 0.09251,0.150889 -0.323627,0.214814 -0.36424,0.386902 -0.03865,0.163839 -0.01429,0.429444 0.145696,0.483613 0.23609,0.07994 0.388715,-0.315363 0.607074,-0.435258 0.397503,-0.218263 0.886378,-0.255041 1.262706,-0.5078 0.270515,-0.18169 0.785786,-0.393904 0.679922,-0.701252 -0.03711,-0.107827 -0.23311,-0.08936 -0.339961,-0.04842 -0.118015,0.04514 -0.128931,0.235501 -0.242834,0.290172 -0.328201,0.157523 -0.788777,0.224211 -1.09272,0.02416 -0.181817,-0.11967 -0.227302,-0.388049 -0.242834,-0.604531 -0.01963,-0.272996 0.219017,-0.525387 0.194265,-0.797973 -0.0072,-0.07902 -0.02817,-0.177841 -0.09714,-0.217639 -0.274565,-0.158434 -0.648601,-0.01075 -0.947024,0.09673 -0.586927,0.211303 -1.157572,1.519707 -1.554109,1.039789 -0.349109,-0.422514 0.746335,-0.807032 1.165579,-1.160698 0.212521,-0.179274 0.411946,-0.408019 0.679922,-0.483623 0.343456,-0.09693 0.711777,0.05773 1.068441,0.07257 0.533825,0.02211 1.079923,0.134102 1.602678,0.02416 0.549254,-0.115514 1.170399,-1.130685 1.529819,-0.701262 0.468717,0.559994 -1.551765,1.11963 -1.262717,1.789406 0.197061,0.456631 1.056107,-0.04268 1.481261,0.217639 0.143476,0.08783 0.144812,0.328455 0.291392,0.41107 0.190708,0.107499 0.437057,0.06418 0.655632,0.04842 0.148862,-0.01075 0.345204,0.02037 0.437099,-0.09673 0.194419,-0.247794 0.118549,-0.6626 -0.02426,-0.943069 -0.101763,-0.199879 -0.331439,-0.313899 -0.534226,-0.41108 -0.307797,-0.147512 -0.864668,0.07237 -0.995593,-0.241806 -0.119721,-0.287275 0.384357,-0.503768 0.485657,-0.797983 0.113646,-0.330072 0.227158,-0.707127 0.121417,-1.039789 -0.09169,-0.288452 -0.377644,-0.47872 -0.607074,-0.677075 -0.462786,-0.400117 -1.575181,-0.406985 -1.529819,-1.015611 0.01131,-0.151023 0.366471,-0.04924 0.412809,-0.193441 0.206487,-0.642774 -0.331429,-1.631075 -0.995604,-1.765229 -0.310994,-0.06285 -0.484115,0.412155 -0.752769,0.580343 -0.183873,0.115115 -0.370902,0.337698 -0.582785,0.290172 -0.230622,-0.05169 -0.360036,-0.333613 -0.437088,-0.556166 -0.07915,-0.228602 0.100119,-0.505119 0,-0.725429 -0.14659,-0.322621 -0.474401,-0.561981 -0.801339,-0.701252 -0.425822,-0.181404 -0.986465,-0.357352 -1.384123,-0.120909 -0.491865,0.292455 -0.341225,1.111698 -0.679922,1.571778 -0.139117,0.188968 -0.460236,0.237026 -0.534225,0.459446 -0.09385,0.282167 0.21989,0.574365 0.194264,0.870515 -0.0256,0.29528 -0.126443,0.615689 -0.33996,0.82216 -0.279345,0.270109 -0.841952,0.11447 -1.092721,0.411081 -0.276056,0.326509 -0.06527,0.868928 -0.242834,1.257418 -0.09786,0.214271 -0.201563,0.576413 -0.437088,0.556166 -0.256155,-0.02201 -0.324295,-0.424142 -0.36424,-0.677075 -0.07031,-0.445115 0.48318,-0.948197 0.242823,-1.329961 -0.160642,-0.255164 -0.602592,-0.109321 -0.874186,-0.241806 -0.425967,-0.207792 -0.886101,-0.448186 -1.14129,-0.846348 -0.213507,-0.333133 -0.357631,-0.782383 -0.242833,-1.160688 0.240058,-0.791124 1.086491,-1.276129 1.772652,-1.741051 0.380502,-0.257826 0.873848,-0.311013 1.262706,-0.556166 0.397607,-0.250661 0.742018,-0.581347 1.068452,-0.918881 0.143805,-0.148699 0.206723,-0.384395 0.388519,-0.483623 0.399765,-0.218202 0.969331,0.08916 1.359844,-0.145086 0.359625,-0.215684 0.725469,-0.622271 0.704201,-1.039789 -0.0093,-0.18862 -0.178599,-0.396596 -0.36424,-0.435268 -0.159439,-0.03327 -0.291392,0.145086 -0.437088,0.217629 -0.291392,0.145085 -0.56237,0.529286 -0.874187,0.435268 -0.187378,-0.0565 -0.272098,-0.313807 -0.291392,-0.507811 -0.03022,-0.30438 0.528151,-0.675662 0.291392,-0.870516 -0.293314,-0.241387 -0.739849,0.275586 -0.995593,0.556166 -0.148585,0.16302 -0.111076,0.448575 -0.267113,0.604532 -0.225061,0.224947 -0.55757,0.349131 -0.874187,0.386892 -0.269569,0.03214 -0.725026,0.114368 -0.801338,-0.145086 -0.09015,-0.306508 0.504611,-0.402901 0.704211,-0.652887 0.191829,-0.24024 0.307571,-0.531988 0.461367,-0.797982 0.153786,-0.265995 0.452322,-0.491178 0.461378,-0.797973 0.0031,-0.09008 -0.464892,-0.360444 -0.539026,-0.308633 -1.091184,0.762609 -0.89927,0.5648 -1.872085,1.322156 -1.073776,0.835948 -2.885158,2.531245 -3.805303,3.532526 -1.331401,1.448812 -2.565912,2.997293 -3.642432,4.642791 -0.776854,1.187444 -1.446291,2.449151 -2.015477,3.748076 -0.537463,1.226557 -1.028013,2.488264 -1.311275,3.796442 -0.219345,1.012971 -0.438157,2.069292 -0.291392,3.09519 0.05273,0.36898 0.358772,0.671005 0.412809,1.0398 0.0809,0.55242 -0.151915,1.110264 -0.145696,1.668498 0.0062,0.5189 0.0663,1.03901 0.169976,1.54759 0.117634,0.5773 0.03536,1.34104 0.509946,1.69268 0.05849,0.0433 0.15432,0.0342 0.218544,0 0.0772,-0.0411 0.133217,-0.13132 0.145696,-0.21762 0.0737,-0.50973 -0.366625,-0.9688 -0.461377,-1.47506 -0.156068,-0.83386 -0.844111,-2.020547 -0.169976,-2.539024 0.0405,-0.03122 0.112896,0.0092 0.145696,0.04842 0.293325,0.350114 0.102072,0.907508 0.194265,1.354144 0.150168,0.72779 0.339725,1.44965 0.582784,2.15212 0.148883,0.43028 0.479778,0.80555 0.534226,1.25742 0.04204,0.34866 -0.299564,0.7132 -0.169985,1.03979 0.311744,0.7857 1.285515,1.11714 2.015486,1.5476 0.243265,0.14345 0.495319,0.315 0.777049,0.33854 0.09981,0.008 0.191634,-0.081 0.291392,-0.0726 0.220282,0.0186 0.426861,0.13846 0.607074,0.26599 0.261439,0.18499 0.384336,0.53092 0.655633,0.70126 0.365977,0.22978 0.88353,0.14048 1.238426,0.38689 0.29351,0.20378 0.520935,0.51626 0.655643,0.84635 0.07977,0.19544 -0.04153,0.45118 0.07288,0.62871 0.165617,0.25689 0.519064,0.32551 0.786804,0.47419 0.235864,0.13097 0.485688,0.23596 0.721162,0.36763 0.219541,0.12276 0.643893,0.39327 0.643893,0.39327"
             style="fill:#84ac6a;fill-opacity:1;stroke:#000000;stroke-width:0.07973825px;stroke-linecap:butt;stroke-linejoin:miter;stroke-opacity:1" />
          <path
             sodipodi:nodetypes="ssssssssssssssssssssssss"
             inkscape:connector-curvature="0"
             id="path7180"
             d="m 60.663206,75.951297 c 0.56272,0.348098 1.47127,-0.106117 1.957451,0.341966 0.338244,0.311739 0.224485,0.890292 0.343404,1.333697 0.110357,0.41149 0.35428,0.805343 0.343415,1.231112 -0.011,0.432422 -0.292132,0.815353 -0.412089,1.231101 -0.107345,0.372009 -0.292688,0.741858 -0.27473,1.128505 0.01953,0.421316 0.208101,0.827289 0.412089,1.196913 0.176513,0.319836 0.393084,0.636703 0.68683,0.854936 0.316905,0.235429 0.704222,0.467829 1.098909,0.444562 0.378476,-0.02231 0.710132,-0.299036 0.995901,-0.547158 0.635013,-0.551365 0.863342,-1.481066 1.511008,-2.01764 0.6769,-0.560793 1.572663,-0.789702 2.36954,-1.162714 0.7605,-0.355979 1.91063,-0.284808 2.300855,-1.025919 0.232504,-0.441553 -0.307324,-0.972969 -0.274729,-1.470482 0.03135,-0.478423 0.584531,-0.908604 0.446432,-1.367896 -0.147166,-0.489458 -0.979682,-0.497022 -1.201936,-0.957522 -0.252897,-0.523984 0.435823,-1.357271 0,-1.744071 -0.447316,-0.397006 -1.187237,0.233874 -1.785738,0.205182 -0.818536,-0.0392 -1.585029,-0.544948 -2.403883,-0.51296 -0.560941,0.02191 -1.074198,0.325425 -1.614036,0.478771 -0.62755,0.178261 -1.272337,0.299651 -1.888765,0.51296 -0.634643,0.219615 -1.242888,0.509408 -1.854423,0.786529 -0.382106,0.173153 -1.032115,0.141431 -1.133251,0.547168 -0.05129,0.205786 0.196875,0.40107 0.377746,0.51296 z"
             style="fill:#84ac6a;fill-opacity:1;stroke:#000000;stroke-width:0.07973825px;stroke-linecap:butt;stroke-linejoin:miter;stroke-opacity:1" />
          <path
             sodipodi:nodetypes="csssssssssssssssssssssssssssc"
             inkscape:connector-curvature="0"
             id="path7182"
             d="m 63.273134,74.10464 c 0,0 -2.361995,0.08823 -3.399774,0.581347 -0.673528,0.32 -1.226894,0.882103 -1.682711,1.470492 -0.234518,0.302721 -0.446966,0.649652 -0.515117,1.025919 -0.05725,0.315905 -0.05427,0.677341 0.103018,0.957522 0.155317,0.27663 0.615225,0.296877 0.755504,0.581357 0.161454,0.327431 -0.156541,0.764531 0,1.094317 0.177263,0.373432 0.927216,0.649744 0.961559,0.786539 0.03433,0.136784 -0.325981,0.791186 -0.68683,0.854936 -0.434919,0.07687 -0.729981,-0.863422 -1.133251,-0.683953 -0.170129,0.07575 -0.148697,0.367249 -0.103027,0.547158 0.07576,0.298596 0.605337,0.410906 0.583802,0.718142 -0.01634,0.23332 -0.310912,0.363206 -0.515117,0.478761 -0.321263,0.181792 -0.703934,0.387916 -1.064577,0.307778 -0.372052,-0.08271 -0.544186,-0.537598 -0.858531,-0.752341 -0.244879,-0.167288 -0.515693,-0.296712 -0.789847,-0.410363 -0.243974,-0.101133 -0.641077,-0.002 -0.755504,-0.239381 -0.06908,-0.14312 0.03279,-0.366645 0.171702,-0.444572 0.395181,-0.221683 0.921348,0.414806 1.339306,0.23938 0.394965,-0.165773 0.667567,-0.636652 0.721162,-1.060118 0.05931,-0.468627 -0.141564,-1.003533 -0.480774,-1.333687 -0.181211,-0.176367 -0.488638,-0.139118 -0.721162,-0.239391 -0.441806,-0.190513 -1.166412,-0.215868 -1.270621,-0.683942 -0.108023,-0.48522 0.53624,-0.849204 0.892864,-1.196903 0.381293,-0.371743 0.857678,-0.633561 1.304963,-0.923333 0.714182,-0.462691 1.421796,-0.949272 2.197838,-1.299499 0.504468,-0.22767 1.042476,-0.378796 1.579693,-0.51296 0.823285,-0.205611 1.658185,-0.455156 2.5069,-0.444562 0.572423,0.0072 1.682721,0.341966 1.682721,0.341966"
             style="fill:#84ac6a;fill-opacity:1;stroke:#000000;stroke-width:0.07973825px;stroke-linecap:butt;stroke-linejoin:miter;stroke-opacity:1" />
          <path
             sodipodi:nodetypes="cssssssssssssssssssssssssssssssssssssssssssssssssssssssssssssssssssssssssssssssssssssssssssssssssssssssssssssssssssssssssssssssssssssssssssssssssssssssssc"
             inkscape:connector-curvature="0"
             id="path7184"
             d="m 86.745854,80.424468 c -0.846695,-0.626261 -1.825399,-1.06068 -2.787978,-1.489906 -0.386577,-0.172382 -0.776217,-0.503295 -1.193875,-0.433284 -0.192224,0.03226 -0.368176,0.193065 -0.453547,0.367565 -0.215573,0.440621 -0.06433,0.981375 -0.02813,1.470213 0.04109,0.555191 0.391784,1.102136 0.277611,1.647077 -0.08825,0.421076 -0.693389,0.651051 -0.70763,1.080976 -0.01983,0.607682 0.470956,1.154873 0.89694,1.590529 0.193163,0.197552 0.441505,0.477213 0.713178,0.424097 0.249394,-0.04877 0.204323,-0.593546 0.458128,-0.606903 0.509288,-0.0268 0.647313,0.794555 1.043455,1.114485 0.266882,0.215547 0.540783,0.561834 0.882887,0.529947 0.217738,-0.0203 0.441215,-0.222811 0.489191,-0.435282 0.09896,-0.438123 -0.348795,-0.82834 -0.525805,-1.241398 -0.162878,-0.380068 -0.369381,-0.743821 -0.493432,-1.138155 -0.09469,-0.300881 -0.153245,-0.613758 -0.188342,-0.927106 -0.03047,-0.272134 -0.258888,-0.688121 -0.01862,-0.821244 0.09435,-0.05226 0.196859,0.09836 0.271407,0.176218 0.287332,0.299901 0.428501,0.710881 0.632086,1.072408 0.160442,0.2849 0.231394,0.633989 0.46433,0.863968 0.163605,0.161531 0.398556,0.233566 0.612143,0.319548 0.363032,0.146131 1.033884,-0.04932 1.127155,0.329402 0.03473,0.140914 -0.180302,0.246284 -0.314904,0.301808 -0.275153,0.113506 -0.698241,-0.206961 -0.893355,0.0171 -0.21209,0.243565 -0.03411,0.6759 0.119016,0.959974 0.119273,0.22118 0.478532,0.257704 0.574535,0.489843 0.06986,0.168982 0.05641,0.39398 -0.04479,0.546401 -0.144108,0.21701 -0.441136,0.29708 -0.693891,0.362966 -0.465614,0.121368 -0.995409,0.216159 -1.443377,0.04077 -0.27884,-0.109169 -0.432656,-0.413088 -0.640581,-0.627916 -0.219155,-0.226439 -0.325168,-0.66399 -0.639282,-0.696311 -0.113871,-0.01138 -0.244191,0.09116 -0.278605,0.199898 -0.09904,0.313014 0.311594,0.601821 0.325686,0.929724 0.0085,0.198892 -0.06151,0.399393 -0.148456,0.578623 -0.160386,0.330493 -0.43249,0.595271 -0.669379,0.876479 -0.177157,0.210306 -0.295006,0.6766 -0.561136,0.60493 -0.329669,-0.08872 -0.04927,-0.702394 -0.221369,-0.996138 -0.282228,-0.481669 -0.856141,-0.721438 -1.249452,-1.118426 -0.239053,-0.241286 -0.464059,-0.497239 -0.672311,-0.765343 -0.266256,-0.342773 -0.37462,-0.831598 -0.735083,-1.074378 -0.193411,-0.130262 -0.488138,-0.276316 -0.684076,-0.14991 -0.156382,0.100881 -0.11086,0.408327 -0.113477,0.545086 -0.0026,0.13677 0.633681,0.79021 0.42477,1.136851 -0.15495,0.257099 -0.634949,-0.03088 -0.895328,0.119677 -0.184114,0.106484 -0.33134,0.301126 -0.387503,0.505649 -0.0884,0.321878 -0.125807,0.765581 0.118372,0.994167 0.225363,0.210965 0.647454,0.184919 0.926383,0.05192 0.200457,-0.09557 0.283838,-0.344408 0.388156,-0.53983 0.113841,-0.213269 0.03455,-0.575121 0.253428,-0.679229 0.378932,-0.180246 1.084484,-0.0045 1.19453,0.399102 0.121363,0.445113 -0.894911,0.581989 -0.912994,1.042841 -0.01226,0.316692 0.28635,0.618241 0.569302,0.763372 0.427441,0.219245 1.079693,-0.287112 1.44206,0.0276 0.148932,0.12935 0.203721,0.421002 0.09189,0.583221 -0.226273,0.328219 -1.060588,-0.130997 -1.172624,0.251191 -0.09305,0.317315 0.482563,0.454871 0.707945,0.697615 0.341437,0.367728 0.871788,0.657034 0.974129,1.147363 0.06046,0.289753 -0.01908,0.673127 -0.256701,0.85018 -0.788972,0.586627 -2.28571,-0.708129 -2.954109,0.01186 -0.249732,0.269004 0.05229,0.856093 0.08206,1.096088 0.02974,0.239993 -0.03053,0.725233 0.08273,1.061895 0.104863,0.311795 0.302154,0.596613 0.533657,0.831099 0.209283,0.211989 0.466938,0.388097 0.746206,0.493128 0.366634,0.137887 0.782023,0.24283 1.164773,0.159098 0.282172,-0.06176 0.512057,-0.27626 0.730189,-0.464876 0.257836,-0.222943 0.448283,-0.513116 0.667406,-0.773912 0.345296,-0.410957 0.770024,-0.771457 1.019927,-1.246014 0.14313,-0.271802 0.03859,-0.668178 0.257354,-0.884364 0.364978,-0.36067 0.981408,-0.520379 1.484901,-0.416239 0.526903,0.108981 0.830685,0.681679 1.251415,1.015859 0.402732,0.319892 1.013034,0.908682 1.218386,0.946807 0.205364,0.03813 0.145705,0.61992 -0.01636,0.85478 -0.09877,0.143089 -0.428346,0.03163 -0.484612,0.195946 -0.09953,0.290491 0.166043,0.723467 0.465638,0.795593 0.200594,0.04827 0.406689,-0.161359 0.521576,-0.332059 0.200103,-0.297309 0.190512,-0.698697 0.191953,-1.056639 0.0017,-0.301792 0.0028,-0.634718 -0.15466,-0.892246 -0.265096,-0.431964 -0.890304,-0.526477 -1.219051,-0.912625 -0.278283,-0.326868 -0.917404,-0.854803 -0.59643,-1.140136 0.691584,-0.614802 1.814169,0.766359 2.305981,1.549093 0.190674,0.303456 0.03931,0.723099 0.151389,1.063209 0.19657,0.596507 0.265352,1.646198 0.895643,1.658904 0.30237,0.0061 0.324053,-0.780482 0.461398,-0.777854 0.137335,0.0026 -0.228093,-0.606673 -0.08665,-0.856741 0.15073,-0.266486 0.644732,-0.152022 0.831891,-0.39453 0.169711,-0.219888 0.138863,-0.540967 0.153047,-0.81796 0.03461,-0.675133 -0.795976,-1.765958 -0.167416,-2.021213 0.405819,-0.164805 0.407385,0.934299 0.8394,1.007965 0.106442,0.01811 0.172535,-0.189058 0.277951,-0.165695 0.505305,0.112049 0.721857,0.78776 0.868503,1.282151 0.06162,0.207719 0.172974,0.536419 -0.01243,0.649625 -0.279432,0.170612 -0.559198,-0.464477 -0.884859,-0.427372 -0.371317,0.04234 -0.610105,0.436226 -0.872115,0.701586 -0.120368,0.121913 -0.289855,0.235525 -0.316856,0.404385 -0.09063,0.566553 0.144629,1.25153 0.58727,1.618808 0.302243,0.250788 0.788382,0.309243 1.164119,0.193291 0.07736,-0.0238 0.09981,-0.197617 0.174943,-0.167667 0.851903,0.339514 0.821766,2.150836 0.119329,2.738566 -0.08934,0.07476 -0.225311,-0.07669 -0.342034,-0.07494 -0.130496,0.0016 -0.249628,0.106713 -0.37965,0.09535 -0.756157,-0.06607 -1.323544,-1.017065 -2.077416,-0.92905 -0.218394,0.02551 -0.428799,0.202542 -0.522874,0.400443 -0.09812,0.206301 0.206856,0.550572 0.02124,0.684475 -0.430902,0.31085 -1.047192,-0.264849 -1.500918,-0.541775 -0.262624,-0.160294 -0.429447,-0.443278 -0.674927,-0.628574 -0.327044,-0.246849 -0.861129,-0.274371 -1.052605,-0.63581 -0.149651,-0.282503 0.09574,-0.640199 0.05264,-0.9567 -0.0228,-0.167929 -0.02528,-0.381693 -0.16251,-0.481958 -0.42456,-0.310235 -1.054805,-0.07546 -1.579404,-0.03022 -0.489855,0.04223 -0.973375,0.152152 -1.447959,0.280126 -0.506908,0.136693 -0.962733,0.485725 -1.486864,0.518807 -0.360712,0.02278 -0.699012,-0.225783 -1.060455,-0.225512 -0.199919,2.76e-4 -0.452655,-0.02238 -0.586313,0.125601 -0.176681,0.195675 0.05293,0.55984 -0.0837,0.78507 -0.238102,0.39242 -0.938923,0.356271 -1.148103,0.764714 -0.182307,0.355975 0.222552,0.839285 0.04576,1.198008 -0.245095,0.497298 -0.977372,0.561978 -1.358034,0.965928 -0.474176,0.50318 -0.745627,1.16363 -1.098404,1.75756 -0.271137,0.45649 -0.642538,0.87557 -0.782191,1.38738 -0.04799,0.17601 -0.0491,0.36879 -0.01047,0.54706 0.04327,0.19933 0.243635,0.34943 0.264211,0.55232 0.0673,0.66307 -0.373068,1.28308 -0.483654,1.94034 -0.08155,0.48459 -0.300789,1.00682 -0.131131,1.46824 0.114141,0.31044 0.447133,0.49307 0.707944,0.69763 0.282254,0.22138 0.730583,0.25869 0.916579,0.56479 0.130918,0.21547 -0.05417,0.52602 0.05425,0.75353 0.357956,0.75093 1.026498,1.45907 1.822025,1.71083 0.68516,0.21682 1.429984,-0.16285 2.135305,-0.30117 0.850077,-0.16672 1.680959,-0.85302 2.519537,-0.63587 0.329405,0.0853 0.436236,0.54996 0.74228,0.69828 0.238752,0.11572 0.609947,-0.0787 0.78774,0.11769 0.238112,0.26303 0.115844,0.71357 0.04837,1.06124 -0.08759,0.45114 -0.511095,0.79928 -0.573566,1.25456 -0.05352,0.38992 0.172198,0.77304 0.183772,1.16643 0.02158,0.73147 -0.05067,1.47142 -0.213554,2.18494 -0.08585,0.37611 -0.211637,0.74912 -0.398615,1.0869 -0.426593,0.77064 -1.229606,1.30016 -1.619968,2.08962 -0.19254,0.38938 -0.185066,0.85095 -0.333223,1.25915 -0.297866,0.82068 -0.691795,1.60627 -1.110181,2.37301 -0.318658,0.58399 -1.366772,1.09807 -1.062759,1.68984 0.224433,0.43689 1.001195,0.23102 1.475088,0.0966 1.180154,-0.3347 2.08368,-1.31316 2.994674,-2.13172 0.813907,-0.73133 1.415197,-1.66974 2.176525,-2.45521 0.736355,-0.75971 1.662533,-1.34187 2.308624,-2.17907 0.801718,-1.03886 1.164941,-2.35706 1.886483,-3.45267 0.816036,-1.23909 2.099315,-2.17015 2.746165,-3.50462 0.575851,-1.188 1.101849,-2.89656 1.316507,-3.87222 0.44131,-2.00584 0.590339,-4.05215 0.646331,-6.08583 0.05027,-1.82605 -0.247769,-3.701163 -0.505012,-5.509897 -0.191194,-1.344306 -0.538689,-2.643358 -1.005845,-3.918935 -0.661325,-1.805757 -1.424516,-3.708805 -2.378603,-5.379699 -0.944825,-1.654686 -2.115666,-3.20249 -3.320929,-4.679903 -0.791284,-0.969952 -1.788914,-1.771593 -2.796339,-2.516749 z"
             style="fill:#84ac6a;fill-opacity:1;stroke:#000000;stroke-width:0.07973825px;stroke-linecap:butt;stroke-linejoin:miter;stroke-opacity:1" />
        </g>
      </g>
      <circle
         r="29.765625"
         cy="54.164665"
         cx="39.627773"
         id="path815-4-4"
         style="opacity:1;fill:none;fill-opacity:1;stroke:#060606;stroke-width:0.07986382;stroke-miterlimit:4;stroke-dasharray:none;stroke-dashoffset:0;stroke-opacity:1" />
    </g>
  </g>
</svg>
