<?xml version="1.0" encoding="UTF-8" standalone="no"?>
<!-- Created with Inkscape (http://www.inkscape.org/) -->

<svg
   xmlns:dc="http://purl.org/dc/elements/1.1/"
   xmlns:cc="http://creativecommons.org/ns#"
   xmlns:rdf="http://www.w3.org/1999/02/22-rdf-syntax-ns#"
   xmlns:svg="http://www.w3.org/2000/svg"
   xmlns="http://www.w3.org/2000/svg"
   xmlns:sodipodi="http://sodipodi.sourceforge.net/DTD/sodipodi-0.dtd"
   xmlns:inkscape="http://www.inkscape.org/namespaces/inkscape"
   width="2in"
   height="2in"
   viewBox="0 0 50.800001 50.800001"
   version="1.1"
   id="svg1173"
   inkscape:version="0.92.2 (5c3e80d, 2017-08-06)"
   sodipodi:docname="TempLogoInk.svg">
  <defs
     id="defs1167">
    <inkscape:path-effect
       effect="spiro"
       id="path-effect1297"
       is_visible="true" />
    <inkscape:path-effect
       effect="spiro"
       id="path-effect1297-6"
       is_visible="true" />
  </defs>
  <sodipodi:namedview
     id="base"
     pagecolor="#ffffff"
     bordercolor="#666666"
     borderopacity="1.0"
     inkscape:pageopacity="0.0"
     inkscape:pageshadow="2"
     inkscape:zoom="2.8"
     inkscape:cx="114.43648"
     inkscape:cy="75.085995"
     inkscape:document-units="mm"
     inkscape:current-layer="layer1"
     showgrid="false"
     fit-margin-top="0"
     fit-margin-left="0"
     fit-margin-right="0"
     fit-margin-bottom="0"
     units="in"
     inkscape:window-width="1920"
     inkscape:window-height="1001"
     inkscape:window-x="-9"
     inkscape:window-y="-9"
     inkscape:window-maximized="1"
     inkscape:object-nodes="true"
     inkscape:snap-nodes="true"
     inkscape:snap-global="false" />
  <metadata
     id="metadata1170">
    <rdf:RDF>
      <cc:Work
         rdf:about="">
        <dc:format>image/svg+xml</dc:format>
        <dc:type
           rdf:resource="http://purl.org/dc/dcmitype/StillImage" />
        <dc:title></dc:title>
      </cc:Work>
    </rdf:RDF>
  </metadata>
  <g
     inkscape:label="Layer 1"
     inkscape:groupmode="layer"
     id="layer1"
     transform="translate(-50.98878,-59.139786)">
    <g
       id="g1722"
       transform="matrix(0.66085122,0,0,0.66085151,-39.420331,44.388896)"
       style="stroke-width:1.51319957">
      <g
         transform="matrix(1.2550576,0,0,1.2550576,-24.118613,-69.057319)"
         style="fill:#ffffff;fill-opacity:1;stroke:#000000;stroke-width:1.20568132;stroke-opacity:1"
         id="g7030">
        <path
           sodipodi:nodetypes="cscsssscccsscc"
           style="opacity:1;fill:#ffffff;fill-opacity:1;stroke:#000000;stroke-width:0.31950557;stroke-miterlimit:4;stroke-dasharray:none;stroke-dashoffset:0;stroke-opacity:1"
           d="m 156.40652,132.6073 c -8.49846,-0.74272 -16.33749,-5.19899 -21.41823,-12.17566 -6.15053,-8.44568 -7.35409,-19.71307 -3.12904,-29.293154 1.50367,-3.409476 3.5133,-6.327391 6.21517,-9.024183 3.10663,-3.10079 6.39092,-5.234303 10.44185,-6.783144 3.44411,-1.316829 6.74895,-1.905559 10.63058,-1.893745 6.78057,0.02064 13.0191,2.211178 18.37909,6.453468 1.28386,1.016143 3.80415,3.557564 4.78274,4.822833 3.42365,4.426648 5.37543,9.105368 6.14902,14.740247 0.2253,1.641048 0.2238,5.519388 -0.003,7.228798 -1.03812,7.83163 -4.84027,14.62448 -10.94747,19.5585 -2.00935,1.62336 -5.24508,3.48882 -7.75378,4.47021 -4.09706,1.60275 -8.89796,2.28467 -13.34715,1.89583 z"
           id="path1488"
           inkscape:connector-curvature="0" />
      </g>
      <path
         sodipodi:nodetypes="ccsscscscccccccscsccccccccccccccccscccccccc"
         inkscape:connector-curvature="0"
         id="path1488-9"
         d="m 177.35588,24.774233 c 0.26342,7.9e-4 0.53622,0.008 0.83561,0.0212 2.92759,0.13042 4.59054,0.48057 8.53901,1.79628 4.76443,1.58761 5.28091,1.83378 8.95398,4.27209 3.26634,2.16831 4.49012,3.36057 6.43165,6.26577 1.42297,2.12926 2.04519,2.9351 3.58376,4.64002 2.17611,2.41139 3.06913,3.91104 4.0876,6.8647 0.99797,2.89423 1.34507,5.00838 1.55081,9.4418 0.17877,3.8522 0.15268,4.93589 -0.17983,7.41247 -0.6689,4.98197 -0.95662,6.28147 -2.0345,9.19117 -0.57536,1.55313 -1.03302,2.33442 -2.26963,3.87521 -0.58502,0.72891 -1.54477,1.95617 -2.13269,2.72748 -1.15474,1.515 -2.13786,2.50403 -3.36517,3.38481 -0.66941,0.48041 -0.84895,0.69283 -1.27382,1.50947 -0.55498,1.06676 -0.81786,1.30446 -2.22519,2.00711 -0.53334,0.26629 -1.46771,0.88582 -2.07584,1.37718 -1.70422,1.37699 -2.12232,1.55119 -5.09788,2.12132 -0.52631,0.10083 -1.6751,0.49923 -2.728,0.946189 -1.00025,0.42461 -2.13872,0.8617 -2.53008,0.97152 -0.54174,0.15198 -1.30581,0.20731 -3.20187,0.23151 -1.36977,0.0174 -2.73058,0.0117 -3.02411,-0.0129 -1.87788,-0.15692 -3.08588,-0.33884 -4.38836,-0.66146 -1.56671,-0.38812 -2.19058,-0.42941 -5.04,-0.33331 -1.61891,0.0546 -1.97148,-0.0168 -4.40128,-0.892449 -2.89096,-1.04188 -3.89702,-1.6271 -5.83324,-3.3936 -1.17963,-1.0762 -2.08986,-1.51182 -5.53144,-2.64634 -4.2153,-1.38957 -6.49699,-2.77997 -8.29717,-5.05654 -0.98219,-1.24211 -1.51396,-2.33976 -2.03605,-4.20078 -0.23754,-0.84674 -0.8543,-2.83462 -1.37046,-4.41782 -1.54066,-4.72578 -2.09973,-7.28976 -2.36265,-10.8381 -0.14673,-1.9802 -0.049,-3.42968 0.42478,-6.31486 0.16167,-0.98456 0.37541,-2.64069 0.47491,-3.68039 0.0995,-1.03969 0.23959,-2.13391 0.31109,-2.43138 0.21575,-0.89805 0.76727,-1.9205 1.47536,-2.73472 0.36871,-0.42398 1.28606,-1.70485 2.03864,-2.84633 2.81097,-4.26356 4.03195,-5.73367 5.95416,-7.16959 1.10249,-0.82357 1.63,-1.34439 3.16673,-3.12694 1.97801,-2.2944 2.7194,-2.84024 6.14278,-4.51962 1.56546,-0.76796 3.35374,-1.5893 3.9734,-1.82521 2.66653,-1.01519 5.0711,-1.50398 7.40316,-1.50431 0.89203,-1.3e-4 2.35629,-0.10586 3.44786,-0.24908 1.10542,-0.14503 1.81371,-0.20365 2.60397,-0.20154 z"
         style="opacity:1;fill:#93a7ac;fill-opacity:1;stroke:#000000;stroke-width:0.40099788;stroke-miterlimit:4;stroke-dasharray:none;stroke-dashoffset:0;stroke-opacity:1" />
      <circle
         r="1.6772693"
         cy="59.845982"
         cx="175.91089"
         id="path1271"
         style="fill:none;fill-opacity:1;fill-rule:evenodd;stroke:#ffffff;stroke-width:0.40099788;stroke-linecap:butt;stroke-linejoin:miter;stroke-miterlimit:4;stroke-dasharray:none;stroke-dashoffset:0;stroke-opacity:1" />
      <path
         inkscape:connector-curvature="0"
         id="path1299-6"
         d="m 175.93847,24.927823 0.0323,33.253632"
         style="fill:#ffffff;stroke:#ffffff;stroke-width:0.40036738px;stroke-linecap:butt;stroke-linejoin:miter;stroke-opacity:1" />
      <path
         inkscape:connector-curvature="0"
         id="path1299-8-8"
         d="M 175.19206,61.293864 161.68258,90.175088"
         style="fill:none;stroke:#ffffff;stroke-width:0.40036738px;stroke-linecap:butt;stroke-linejoin:miter;stroke-opacity:1" />
      <path
         inkscape:connector-curvature="0"
         id="path1299-6-4"
         d="m 175.83616,93.314073 0.0324,-31.835386"
         style="fill:#ffffff;stroke:#ffffff;stroke-width:0.40036738px;stroke-linecap:butt;stroke-linejoin:miter;stroke-opacity:1" />
      <path
         inkscape:connector-curvature="0"
         id="path1299-6-4-2"
         d="m 211.34201,59.768793 -33.74874,0.0323"
         style="fill:none;stroke:#ffffff;stroke-width:0.40036738px;stroke-linecap:butt;stroke-linejoin:miter;stroke-opacity:1" />
      <path
         inkscape:connector-curvature="0"
         id="path1299-6-4-2-9"
         d="m 174.11143,59.674299 -34.18889,0.0323"
         style="fill:#ffffff;stroke:#ffffff;stroke-width:0.40036738px;stroke-linecap:butt;stroke-linejoin:miter;stroke-opacity:1" />
      <path
         inkscape:connector-curvature="0"
         id="path1299-6-4-2-9-2-8"
         d="M 147.73233,82.737174 174.75609,60.920307"
         style="fill:#ffffff;stroke:#ffffff;stroke-width:0.40036738px;stroke-linecap:butt;stroke-linejoin:miter;stroke-opacity:1" />
      <path
         inkscape:connector-curvature="0"
         id="path1299-6-4-2-9-2-5-9"
         d="m 174.34694,60.338436 -32.4518,10.434427"
         style="fill:#ffffff;stroke:#ffffff;stroke-width:0.40036738px;stroke-linecap:butt;stroke-linejoin:miter;stroke-opacity:1" />
      <path
         inkscape:connector-curvature="0"
         id="path1299-8-8-4"
         d="M 176.43103,58.213295 190.65519,28.05614"
         style="fill:#ffffff;stroke:#ffffff;stroke-width:0.40036738px;stroke-linecap:butt;stroke-linejoin:miter;stroke-opacity:1" />
      <path
         inkscape:connector-curvature="0"
         id="path1299-6-4-2-9-2-8-3"
         d="M 202.51409,37.822398 176.90304,58.458414"
         style="fill:#ffffff;stroke:#ffffff;stroke-width:0.40036738px;stroke-linecap:butt;stroke-linejoin:miter;stroke-opacity:1" />
      <path
         inkscape:connector-curvature="0"
         id="path1299-6-4-2-9-2-5-9-6"
         d="M 177.3648,58.982617 209.69657,48.532489"
         style="fill:none;stroke:#ffffff;stroke-width:0.40036738px;stroke-linecap:butt;stroke-linejoin:miter;stroke-opacity:1" />
      <path
         inkscape:connector-curvature="0"
         id="path1299-8-8-8"
         d="m 176.66734,61.242537 14.24748,30.384307"
         style="fill:none;stroke:#ffffff;stroke-width:0.40036738px;stroke-linecap:butt;stroke-linejoin:miter;stroke-opacity:1" />
      <path
         inkscape:connector-curvature="0"
         id="path1299-6-4-2-9-2-8-7"
         d="M 203.77538,82.353201 177.11531,60.879883"
         style="fill:none;stroke:#ffffff;stroke-width:0.40036738px;stroke-linecap:butt;stroke-linejoin:miter;stroke-opacity:1" />
      <path
         inkscape:connector-curvature="0"
         id="path1299-6-4-2-9-2-5-9-5"
         d="M 177.47108,60.381281 210.1959,70.965689"
         style="fill:none;stroke:#ffffff;stroke-width:0.40036738px;stroke-linecap:butt;stroke-linejoin:miter;stroke-opacity:1" />
      <path
         inkscape:connector-curvature="0"
         id="path1299-8-8-5"
         d="M 175.50743,58.142447 161.4788,27.957745"
         style="fill:#ffffff;stroke:#ffffff;stroke-width:0.40036738px;stroke-linecap:butt;stroke-linejoin:miter;stroke-opacity:1" />
      <path
         inkscape:connector-curvature="0"
         id="path1299-6-4-2-9-2-8-2"
         d="m 149.35825,37.42456 25.50956,21.06301"
         style="fill:#ffffff;stroke:#ffffff;stroke-width:0.40036738px;stroke-linecap:butt;stroke-linejoin:miter;stroke-opacity:1" />
      <path
         inkscape:connector-curvature="0"
         id="path1299-6-4-2-9-2-5-9-2"
         d="M 174.44587,58.996325 141.45276,48.198185"
         style="fill:#ffffff;stroke:#ffffff;stroke-width:0.40036738px;stroke-linecap:butt;stroke-linejoin:miter;stroke-opacity:1" />
      <ellipse
         ry="5.3853707"
         rx="5.6655836"
         cy="59.409885"
         cx="175.8195"
         id="path1271-0"
         style="fill:none;fill-opacity:1;fill-rule:evenodd;stroke:#ffffff;stroke-width:0.40099788;stroke-linecap:butt;stroke-linejoin:miter;stroke-miterlimit:4;stroke-dasharray:none;stroke-dashoffset:0;stroke-opacity:1" />
      <ellipse
         ry="9.8982506"
         rx="10.40764"
         cy="59.574455"
         cx="175.9911"
         id="path1271-0-5"
         style="fill:none;fill-opacity:1;fill-rule:evenodd;stroke:#ffffff;stroke-width:0.40099788;stroke-linecap:butt;stroke-linejoin:miter;stroke-miterlimit:4;stroke-dasharray:none;stroke-dashoffset:0;stroke-opacity:1" />
      <ellipse
         ry="30.131033"
         rx="31.667898"
         cy="59.327156"
         cx="176.38493"
         id="path1271-0-5-9"
         style="fill:none;fill-opacity:1;fill-rule:evenodd;stroke:#ffffff;stroke-width:0.40099788;stroke-linecap:butt;stroke-linejoin:miter;stroke-miterlimit:4;stroke-dasharray:none;stroke-dashoffset:0;stroke-opacity:1" />
      <ellipse
         ry="22.712032"
         rx="23.872139"
         cy="59.337002"
         cx="176.42963"
         id="path1271-0-5-9-1"
         style="fill:none;fill-opacity:1;fill-rule:evenodd;stroke:#ffffff;stroke-width:0.40099788;stroke-linecap:butt;stroke-linejoin:miter;stroke-miterlimit:4;stroke-dasharray:none;stroke-dashoffset:0;stroke-opacity:1" />
      <ellipse
         ry="16.147339"
         rx="16.974073"
         cy="59.52457"
         cx="176.38237"
         id="path1271-0-5-9-1-6"
         style="fill:none;fill-opacity:1;fill-rule:evenodd;stroke:#ffffff;stroke-width:0.40099788;stroke-linecap:butt;stroke-linejoin:miter;stroke-miterlimit:4;stroke-dasharray:none;stroke-dashoffset:0;stroke-opacity:1" />
      <g
         style="fill:#608349;fill-opacity:1;stroke-width:1.20568132"
         transform="matrix(1.2550576,0,0,1.2550576,-33.542902,-191.29365)"
         id="g1444">
        <path
           style="fill:#608349;fill-opacity:1;stroke:#000000;stroke-width:0.31900316px;stroke-linecap:butt;stroke-linejoin:miter;stroke-opacity:1"
           d="m 178.83672,188.05426 1.06908,-0.0668"
           id="path1295"
           inkscape:connector-curvature="0"
           inkscape:path-effect="#path-effect1297"
           inkscape:original-d="m 178.83672,188.05426 1.06908,-0.0668"
           sodipodi:nodetypes="cc" />
        <g
           style="fill:#608349;fill-opacity:1;stroke-width:1.20568132"
           id="g1412"
           transform="translate(-13.630746,-17.10525)">
          <path
             inkscape:connector-curvature="0"
             id="path1409"
             d="m 184.58302,239.80432 c 0.31324,0.0817 0.657,0.15366 0.96885,0.0668 0.61608,-0.1716 1.17939,-0.59625 1.5702,-1.10248 0.31223,-0.40444 0.29921,-0.98306 0.53454,-1.43658 0.21767,-0.41949 0.50534,-0.80125 0.80181,-1.1693 0.32617,-0.40493 0.71965,-0.75087 1.06908,-1.1359 0.39778,-0.43831 0.8337,-0.84879 1.16931,-1.33635 0.60729,-0.88224 1.50339,-2.53906 1.50339,-2.83973 0,-0.30068 -1.31807,1.43784 -0.30226,-0.49929 1.01581,-1.93713 1.0556,-1.62489 0.92131,-2.50409 -0.0585,-0.38301 -0.6407,-0.53988 -0.7087,-0.92132 -0.0463,-0.2599 0.18643,-0.49669 0.23623,-0.75595 0.0387,-0.20165 0.14275,-0.43246 0.0472,-0.61421 -0.13135,-0.24985 -0.4521,-0.45918 -0.73233,-0.42523 -0.30407,0.0368 -0.42214,0.44668 -0.66146,0.63784 -0.23549,0.1881 -0.51327,0.31735 -0.75595,0.49609 -0.13963,0.10285 -0.25661,0.23559 -0.4016,0.33073 -0.33272,0.21833 -0.71849,0.34424 -1.06306,0.54334 -0.30069,0.17375 -0.56697,0.92132 -0.87407,0.56697 -0.96776,-1.21726 -1.15319,0.35408 -1.93707,0.21263 -0.19233,0.0702 -0.40951,0.004 -0.61421,0 -0.19698,-0.004 -0.41616,0.068 -0.59059,-0.0236 -0.13943,-0.0732 -0.12778,-0.3543 -0.28348,-0.37798 -0.17286,-0.0263 -0.29031,0.19591 -0.42523,0.30711 -0.13327,0.10984 -0.22496,0.27428 -0.37797,0.35435 -0.29968,0.15683 -0.66005,0.1487 -0.99219,0.21261 -0.32163,0.0619 -0.68097,0.009 -0.96856,0.16537 -0.22512,0.12268 -0.37807,0.35327 -0.51972,0.56696 -0.16743,0.25259 -0.30125,0.53365 -0.37798,0.82682 -0.072,0.2752 0.0337,0.5859 -0.0709,0.85045 -0.0886,0.22416 -0.36964,0.33931 -0.44884,0.56696 -0.0673,0.19337 -0.0517,0.41611 0,0.61422 0.057,0.21832 0.17696,0.42546 0.33072,0.59058 0.46886,0.50347 1.08395,0.88297 1.72452,1.13393 0.26759,0.10484 0.57857,0.2349 0.85045,0.14174 0.13179,-0.0452 0.1455,-0.28788 0.28348,-0.3071 0.32905,-0.0458 0.68545,0.23136 0.85045,0.51971 0.22687,0.39647 0.0321,0.91346 0.0236,1.37017 -0.008,0.43367 0.0402,0.88002 -0.0709,1.29929 -0.0361,0.13616 -0.14526,0.24407 -0.18899,0.37798 -0.16115,0.49347 -0.29198,1.0174 -0.25986,1.53553 0.0203,0.32822 0.069,0.69566 0.28348,0.94494 0.10995,0.12779 0.29417,0.17346 0.4573,0.21599 z"
             style="fill:#608349;fill-opacity:1;stroke:#000000;stroke-width:0.31900316px;stroke-linecap:butt;stroke-linejoin:miter;stroke-opacity:1"
             sodipodi:nodetypes="ssssssssssssssssssccsssssssssssssssssssssss" />
        </g>
        <path
           style="fill:#608349;fill-opacity:1;stroke:#000000;stroke-width:0.31900316px;stroke-linecap:butt;stroke-linejoin:miter;stroke-opacity:1"
           d="m 166.91747,213.2804 c 0.0945,0 -0.29295,-0.15942 -0.44885,-0.14174 -0.15432,0.0175 -0.24635,0.2406 -0.4016,0.23623 -0.22704,-0.006 -0.44632,-0.18552 -0.56696,-0.37797 -0.12244,-0.19532 0.0748,-0.5286 -0.0945,-0.68509 -0.19693,-0.18207 -0.53512,-0.0393 -0.8032,-0.0472 -0.25187,-0.007 -0.63839,0.22288 -0.75595,0 -0.16915,-0.32069 0.75803,-0.56487 0.61421,-0.8977 -0.10117,-0.23412 -0.52003,-0.21499 -0.75595,-0.11811 -0.20833,0.0856 -0.19065,0.46446 -0.4016,0.54334 -0.34001,0.12713 -0.82956,0.0417 -1.06306,-0.23624 -0.2231,-0.26555 -0.10921,-0.69819 -0.0472,-1.03943 0.0214,-0.11801 0.0482,-0.25564 0.14175,-0.33073 0.23123,-0.18563 0.57914,-0.19613 0.87407,-0.16537 0.20363,0.0212 0.36514,0.27068 0.56696,0.23624 0.10443,-0.0178 0.1838,-0.12055 0.23623,-0.21261 0.0596,-0.10467 -0.033,-0.29348 0.0709,-0.35436 0.2643,-0.1548 0.6398,0.0862 0.87407,0.28349 0.12931,0.10891 0.11966,0.32638 0.23623,0.44884 0.13874,0.14575 0.35431,0.4217 0.51972,0.30711 0.22348,-0.15483 -0.0654,-0.54228 -0.14174,-0.8032 -0.0288,-0.0982 -0.12347,-0.18125 -0.11812,-0.28348 0.0206,-0.39413 0.44512,-0.66405 0.56696,-1.03944 0.076,-0.23411 0.0227,-0.4969 0.0945,-0.73233 0.0565,-0.18526 0.14661,-0.36258 0.25986,-0.51971 0.12372,-0.17165 0.28798,-0.3114 0.44884,-0.44885 0.24428,-0.20874 0.70709,-0.25393 0.77958,-0.56696 0.0342,-0.14756 -0.10048,-0.29977 -0.21261,-0.4016 -0.10718,-0.0973 -0.25818,-0.14564 -0.4016,-0.16537 -0.13353,-0.0184 -0.32414,0.15761 -0.4016,0.0473 -0.0506,-0.0721 0.0533,-0.17663 0.11811,-0.23624 0.12482,-0.11486 0.30517,-0.16108 0.47248,-0.18899 0.15554,-0.0259 0.31576,0.0411 0.47247,0.0236 0.20316,-0.0228 0.47951,0.006 0.59059,-0.16536 0.0865,-0.13369 0.0342,-0.35282 -0.0709,-0.47247 -0.0757,-0.0861 -0.22037,-0.0634 -0.33073,-0.0945 -0.14159,-0.0399 -0.29264,-0.0544 -0.42522,-0.11812 -0.15757,-0.0758 -0.26447,-0.23833 -0.42522,-0.30711 -0.1988,-0.0851 -0.45356,-0.005 -0.63784,-0.11812 -0.14362,-0.0882 -0.15222,-0.33518 -0.3071,-0.4016 -0.26933,-0.1155 -0.59022,0.0216 -0.87407,0.0945 -0.19831,0.0509 -0.47672,0.0525 -0.56697,0.23623 -0.0935,0.19032 0.0924,0.41515 0.16537,0.61422 0.0509,0.1389 0.16394,0.25578 0.18899,0.40159 0.0268,0.15599 0.065,0.36082 -0.0472,0.47247 -0.11774,0.11718 -0.37045,0.15586 -0.4961,0.0472 -0.11927,-0.10315 0.0817,-0.35507 -0.0236,-0.47247 -0.1331,-0.14843 -0.416,0.002 -0.59059,-0.0945 -0.22964,-0.12662 -0.49599,-0.32943 -0.51972,-0.59059 -0.0166,-0.18291 0.15947,-0.33699 0.28348,-0.47247 0.0723,-0.079 0.15931,-0.15212 0.25987,-0.18899 0.20017,-0.0734 0.42952,-0.002 0.63783,-0.0473 0.22154,-0.0482 0.41854,-0.17867 0.63784,-0.23623 0.19283,-0.0506 0.45728,0.0538 0.59058,-0.0945 0.10017,-0.11141 0.0883,-0.31371 0.0236,-0.44885 -0.0755,-0.15771 -0.27988,-0.20992 -0.42522,-0.30711 -0.26159,-0.17492 -0.55079,-0.30817 -0.8032,-0.49609 -0.15212,-0.11325 -0.25516,-0.29407 -0.42523,-0.37798 -0.18697,-0.0922 -0.41726,-0.0497 -0.61421,-0.11811 -0.22624,-0.0786 -0.42338,-0.22411 -0.63783,-0.33073 -0.16401,-0.0815 -0.31319,-0.24577 -0.4961,-0.23624 -0.16589,0.009 -0.30164,0.14886 -0.42522,0.25986 -0.0961,0.0863 -0.12175,0.24732 -0.23623,0.30711 -0.14674,0.0766 -0.34734,0.0962 -0.4961,0.0236 -0.14724,-0.0719 -0.22009,-0.2505 -0.28348,-0.4016 -0.10218,-0.24355 7.8e-4,-0.5572 -0.14174,-0.77957 -0.20747,-0.3237 -0.56615,-0.59556 -0.94494,-0.66146 -0.26537,-0.0462 -0.53494,0.0999 -0.77958,0.21261 -0.21622,0.0996 -0.4447,0.21347 -0.59058,0.4016 -0.12822,0.16534 -0.22497,0.38172 -0.21262,0.59059 0.009,0.1582 0.11447,0.3008 0.21262,0.42522 0.15923,0.20186 0.42676,0.29795 0.59058,0.4961 0.19543,0.23637 0.37492,0.50553 0.44885,0.80319 0.0835,0.33635 0.008,0.69429 -0.0236,1.03944 -0.0361,0.3971 -0.0986,0.79282 -0.18898,1.18118 -0.0485,0.20864 -0.0965,0.42101 -0.18899,0.61421 -0.13962,0.29153 -0.44601,0.49495 -0.54334,0.80319 -0.13991,0.4431 -0.21418,0.97001 -0.0236,1.39379 0.0893,0.19864 0.3381,0.27531 0.49609,0.42523 0.16565,0.15719 0.36239,0.29601 0.47247,0.49609 0.12521,0.22757 0.11546,0.50684 0.18899,0.75595 0.0966,0.3272 0.18704,0.65914 0.33073,0.96857 0.0773,0.16658 0.25286,0.29138 0.28348,0.47247 0.0322,0.19034 -0.19207,0.38865 -0.11811,0.56696 0.0937,0.22595 0.38092,0.32799 0.6142,0.4016 0.23292,0.0735 0.53062,-0.11411 0.73233,0.0236 0.0991,0.0676 0.0468,0.25744 0.14175,0.33073 0.12606,0.0973 0.31553,0.0979 0.47247,0.0709 0.13192,-0.0227 0.22194,-0.20869 0.35435,-0.18899 0.18725,0.0279 0.25519,0.28158 0.4016,0.4016 0.1537,0.126 0.30898,0.26373 0.49609,0.33073 0.22352,0.08 0.48687,-0.0137 0.70871,0.0709 0.40031,0.15262 0.63389,0.61783 1.03943,0.75595 0.26845,0.0914 0.56839,0.053 0.85045,0.0236 0.20136,-0.021 0.40737,-0.0556 0.59058,-0.14174 0.14247,-0.067 0.22094,-0.28341 0.37784,-0.28341 z"
           id="path1414"
           inkscape:connector-curvature="0"
           sodipodi:nodetypes="ssssssssssssssssssssssssssssssssssssssssssssssssssssssssssssssssssssssssssssssssssssssssssssssss" />
        <path
           style="fill:#608349;fill-opacity:1;stroke:#000000;stroke-width:0.31900316px;stroke-linecap:butt;stroke-linejoin:miter;stroke-opacity:1"
           d="m 167.3962,201.53738 c 0.11969,-0.0111 0.18696,-0.18539 0.30711,-0.18898 0.25002,-0.007 0.47125,0.19191 0.66146,0.35435 0.21797,0.18614 0.30729,0.49263 0.51971,0.68508 0.30126,0.27293 0.64343,0.54605 1.03944,0.63784 0.16182,0.0375 0.40444,0.0913 0.49609,-0.0472 0.18687,-0.28248 -0.23171,-0.63836 -0.3071,-0.96856 -0.0744,-0.32571 -0.11806,-0.65894 -0.14174,-0.99219 -0.0134,-0.18851 0.0892,-0.40034 0,-0.56697 -0.10718,-0.20026 -0.40553,-0.2182 -0.56697,-0.37797 -0.14903,-0.14749 -0.22895,-0.35167 -0.35435,-0.51972 -0.16402,-0.2198 -0.24925,-0.59241 -0.51972,-0.63783 -0.1918,-0.0322 -0.34589,0.18355 -0.49609,0.3071 -0.23237,0.19114 -0.42671,0.42614 -0.61421,0.66146 -0.14835,0.18619 -0.34014,0.3606 -0.4016,0.59059 -0.0815,0.30516 -0.11756,0.69146 0.0709,0.94494 0.0654,0.088 0.19788,0.12817 0.30707,0.11806 z"
           id="path1416"
           inkscape:connector-curvature="0"
           sodipodi:nodetypes="sssssssssssssssss" />
        <path
           style="fill:#608349;fill-opacity:1;stroke:#000000;stroke-width:0.31900316px;stroke-linecap:butt;stroke-linejoin:miter;stroke-opacity:1"
           d="m 176.49811,197.34187 c -0.14885,0.15079 -0.50686,-0.13552 -0.63476,0.0334 -0.42728,0.56432 0.45095,1.36371 0.46772,2.07134 0.005,0.19219 -0.0993,0.37571 -0.10023,0.56795 -0.001,0.27095 -0.0602,0.61246 0.13364,0.80181 0.16897,0.16509 0.51774,-0.0481 0.70158,0.10022 0.24952,0.20136 0.18062,0.62051 0.33409,0.90204 0.13326,0.24444 0.29358,0.48261 0.50113,0.66817 0.16374,0.14639 0.35915,0.2659 0.56794,0.33409 0.21278,0.0695 0.44929,0.02 0.66818,0.0668 0.20662,0.0442 0.39016,0.20666 0.60136,0.20045 0.29972,-0.009 0.59093,-0.16021 0.83521,-0.33409 0.18008,-0.12819 0.29721,-0.32774 0.43431,-0.50113 0.21278,-0.2691 0.46439,-0.52069 0.60136,-0.83522 0.18137,-0.41649 0.22251,-0.88428 0.26727,-1.33634 0.0362,-0.36571 0.0543,-0.73903 0,-1.10249 -0.0619,-0.4146 -0.44855,-0.79143 -0.36749,-1.20272 0.0306,-0.15529 0.24545,-0.21916 0.30067,-0.36749 0.1438,-0.38629 -0.26197,-0.94862 0.0334,-1.23612 0.27931,-0.27186 0.8141,0.16046 1.16931,0 0.56806,-0.25662 0.6397,-1.22199 1.23612,-1.40317 0.37476,-0.11384 0.75395,0.38745 1.13589,0.30068 0.38517,-0.0875 0.63963,-0.47318 0.90204,-0.7684 0.16005,-0.18006 0.27093,-0.3985 0.4009,-0.60135 0.27512,-0.42938 0.56409,-0.85177 0.80181,-1.30294 0.10226,-0.19407 0.24119,-0.38356 0.26727,-0.60136 0.0592,-0.49449 -0.0807,-1.00821 -0.26727,-1.46998 -0.21055,-0.52121 -0.561,-0.9839 -0.93544,-1.40317 -0.31058,-0.34776 -0.67054,-0.66003 -1.06908,-0.90203 -0.34999,-0.21253 -0.75365,-0.32084 -1.13588,-0.46769 -0.30908,-0.11875 -0.6045,-0.34433 -0.93545,-0.33409 -0.25431,0.008 -0.44715,0.29956 -0.70158,0.30068 -0.66389,0.003 -1.19505,-0.93585 -1.83748,-0.7684 -0.5066,0.13204 -0.54553,0.92812 -0.96885,1.23614 -0.23503,0.17101 -0.52786,0.30286 -0.81851,0.30066 -0.54287,-0.004 -0.98338,-0.50307 -1.5201,-0.58465 -0.67304,-0.1023 -1.78147,-0.49698 -2.03793,0.13363 -0.25398,0.62453 1.23098,0.84033 1.35305,1.50339 0.0476,0.25831 -0.23784,0.47643 -0.28397,0.73499 -0.0626,0.35086 0.11497,0.72649 0.0167,1.06908 -0.0933,0.32513 -0.43507,0.53426 -0.55125,0.85192 -0.0906,0.24777 0.014,0.54729 -0.10022,0.78511 -0.10058,0.20943 -0.41669,0.27889 -0.48443,0.50113 -0.0924,0.30298 0.059,0.63767 0.16704,0.93544 0.0612,0.16881 0.17243,0.31524 0.26727,0.46772 0.14193,0.22818 0.30132,0.44502 0.45102,0.66818 0.0671,0.10003 0.16783,0.18472 0.20045,0.30068 0.1524,0.54179 0.32857,1.28658 -0.0668,1.68713 z"
           id="path1418"
           inkscape:connector-curvature="0"
           sodipodi:nodetypes="ssssssssssssssssssssssssssssssssssssssssssssssss" />
        <path
           style="fill:#608349;fill-opacity:1;stroke:#000000;stroke-width:0.31900316px;stroke-linecap:butt;stroke-linejoin:miter;stroke-opacity:1"
           d="m 162.12816,199.71837 c 0.25598,0.009 0.39426,-0.33506 0.54334,-0.54334 0.31156,-0.43528 0.39984,-1.00384 0.70871,-1.44103 0.26026,-0.36839 0.53353,-0.78366 0.94494,-0.96856 1.22237,-0.54937 2.72011,-0.53058 4.01599,-0.18899 0.41406,0.10915 0.73548,0.44009 1.08668,0.68508 0.31778,0.22167 0.60416,0.48615 0.92132,0.70871 0.3594,0.25221 0.67306,0.66875 1.11031,0.7087 0.27085,0.0247 0.61021,-0.0775 0.75595,-0.3071 0.15634,-0.24636 0.14269,-0.65253 -0.0472,-0.87407 -0.199,-0.23217 -0.6108,-0.0831 -0.89769,-0.18899 -0.18514,-0.0683 -0.53722,-0.0869 -0.51972,-0.28349 0.0243,-0.27284 0.50567,-0.25749 0.77958,-0.25985 0.28889,-0.002 0.61255,0.0661 0.82682,0.25985 0.17792,0.1609 0.1901,0.4405 0.28348,0.66146 0.11955,0.28288 0.19745,0.58645 0.35436,0.85045 0.21174,0.35626 0.3977,0.80753 0.77957,0.96856 0.30612,0.12909 0.76387,-0.33584 0.99219,-0.0945 0.18063,0.19092 -0.18067,0.52431 -0.11812,0.77958 0.0302,0.12314 0.1097,0.25304 0.22438,0.30711 0.18194,0.0858 0.4151,0.0379 0.6024,-0.0354 0.13285,-0.052 0.26616,-0.14445 0.33073,-0.27167 0.12672,-0.24967 0.15659,-0.5809 0.0472,-0.83864 -0.10361,-0.24412 -0.40352,-0.34427 -0.6024,-0.51971 -0.20279,-0.17889 -0.46555,-0.31012 -0.6024,-0.54334 -0.18804,-0.32045 -0.2434,-0.71517 -0.24804,-1.08669 -0.005,-0.37756 0.0156,-0.79574 0.22442,-1.1103 0.18182,-0.27384 0.87421,-0.23182 0.81501,-0.55515 -0.12856,-0.70219 -1.56919,-0.004 -2.08231,-0.50034 -0.24081,-0.23291 -0.23209,-0.6357 -0.26727,-0.96886 -0.0199,-0.18859 -0.13921,-0.48939 0.0334,-0.56794 0.28181,-0.12825 0.66818,0.43431 0.73499,0.56794 0.0668,0.13364 0.26404,0.67578 0.56795,0.73499 0.15185,0.0296 0.3486,-0.0883 0.4009,-0.23386 0.0762,-0.21221 -0.17533,-0.417 -0.23386,-0.63476 -0.0675,-0.25107 -0.29982,-0.56847 -0.13364,-0.7684 0.14594,-0.17558 0.48994,0.11084 0.68488,-0.008 0.17759,-0.10826 0.21387,-0.35863 0.29233,-0.55125 0.0931,-0.22844 0.14068,-0.47286 0.2088,-0.70993 0.17647,-0.61418 0.33165,-1.23452 0.51784,-1.84583 0.0649,-0.21308 0.30004,-0.43157 0.2088,-0.63477 -0.26101,-0.58127 -1.14213,-0.58206 -1.75395,-0.76005 -0.39247,-0.11418 -0.80273,-0.21001 -1.21107,-0.1921 -0.20642,0.009 -0.4897,-0.0235 -0.60136,0.15034 -0.13161,0.20491 0.25307,0.50605 0.13364,0.71829 -0.054,0.096 -0.19959,0.1293 -0.30903,0.11693 -0.65448,-0.074 -1.21241,-0.59779 -1.64538,-1.09413 -0.25211,-0.28901 -0.18496,-0.81861 -0.50113,-1.03567 -0.11055,-0.0759 -0.31102,0.0661 -0.4009,-0.0334 -0.40314,-0.44635 0.17727,-1.22007 0.0334,-1.80407 -0.0942,-0.38229 -0.19574,-0.90728 -0.56794,-1.03567 -0.24053,-0.083 -0.54324,0.10152 -0.70159,0.30068 -0.27462,0.34538 0.0512,0.96608 -0.23386,1.30294 -0.51191,0.60505 -1.45172,0.89828 -2.23838,0.80181 -0.55795,-0.0684 -0.90507,-0.67488 -1.40316,-0.93545 -0.40312,-0.21089 -0.8402,-0.3506 -1.26953,-0.50113 -0.42881,-0.15035 -0.88642,-0.58256 -1.30294,-0.4009 -0.32871,0.14336 -0.50339,0.61201 -0.46772,0.96885 0.0403,0.40335 0.73843,0.5635 0.73499,0.96885 -0.002,0.19827 -0.23332,0.32175 -0.3675,0.46772 -0.45325,0.49308 -1.19475,0.75918 -1.46998,1.36976 -0.17396,0.38593 -0.23711,0.89844 -0.0334,1.26953 0.15624,0.28461 0.735,0.3675 0.83522,0.50113 0.10023,0.13364 0.10319,0.39161 0.0334,0.56795 -0.10725,0.27101 -0.3441,0.57985 -0.63477,0.60135 -0.27113,0.02 -0.44938,-0.6291 -0.66817,-0.46772 -0.26358,0.19442 0.25715,0.61083 0.30068,0.93545 0.0667,0.49717 -0.1958,1.01864 -0.0668,1.50339 0.10169,0.38215 0.33313,0.74653 0.63476,1.00226 0.2398,0.20331 0.83523,0.23386 0.86863,0.36749 0.0334,0.13364 -0.009,0.58219 -0.13364,0.83522 -0.11469,0.23331 -0.40243,0.34404 -0.53454,0.56795 -0.16643,0.28208 -0.25444,0.61119 -0.30067,0.93544 -0.0566,0.39704 -0.11252,0.82914 0.0334,1.20271 0.17804,0.45581 0.47561,1.08985 0.96467,1.10658 z"
           id="path1420"
           inkscape:connector-curvature="0"
           sodipodi:nodetypes="sssssssssssssssssssssssssssssssssssssssssssssssssssssssssssssssssssssssssss" />
        <path
           style="fill:#608349;fill-opacity:1;stroke:#000000;stroke-width:0.31900316px;stroke-linecap:butt;stroke-linejoin:miter;stroke-opacity:1"
           d="m 178.43582,185.24793 c 0,0 0.66598,-0.0475 0.96885,0.0668 0.22298,0.0841 0.33062,0.41253 0.56795,0.43432 0.2021,0.0185 0.40366,-0.12795 0.54289,-0.27561 0.0813,-0.0862 0.0429,-0.26084 0.14199,-0.32574 0.19097,-0.12508 0.48173,0.10416 0.68487,0 0.19526,-0.10012 0.36979,-0.31558 0.3842,-0.53454 0.0116,-0.17649 -0.12324,-0.34495 -0.25056,-0.46772 -0.10935,-0.10544 -0.25959,-0.1745 -0.40926,-0.20045 -0.41683,-0.0723 -1.24447,0.0167 -1.26117,0.14199 -0.0167,0.12528 3.6e-4,0.13256 -0.0418,0.17539 -0.19751,0.20067 -0.55512,0.10921 -0.81848,0.20881 -0.11996,0.0454 -0.25869,0.0783 -0.34244,0.17539 -0.14201,0.16468 -0.2088,0.61806 -0.2088,0.61806"
           id="path1422"
           inkscape:connector-curvature="0"
           sodipodi:nodetypes="cssssssssssssc" />
        <path
           style="fill:#608349;fill-opacity:1;stroke:#000000;stroke-width:0.31900316px;stroke-linecap:butt;stroke-linejoin:miter;stroke-opacity:1"
           d="m 151.63932,186.48921 c 0.16775,-0.36421 0.77569,-0.58175 1.13393,-0.4016 0.0957,0.0481 -0.004,0.26497 0.0945,0.3071 0.30758,0.13161 0.65259,-0.22115 0.8977,-0.44884 0.31563,-0.2932 0.37085,-0.79229 0.66146,-1.11031 0.26244,-0.2872 0.68759,-0.39331 0.94494,-0.68508 0.30305,-0.34359 0.42392,-0.81304 0.66145,-1.2048 0.16192,-0.26706 0.42522,-0.73235 0.51972,-0.77957 0.0945,-0.0472 1.91351,-1.34654 1.84264,-1.34654 -0.0709,0 0.0455,-0.74409 -0.14175,-1.03944 -0.20113,-0.31729 -0.71799,-0.31484 -0.94494,-0.61421 -0.15949,-0.21038 -9e-4,-0.63629 -0.23623,-0.75595 -0.41508,-0.21106 -0.93318,0.194 -1.32292,0.44885 -0.71376,0.46672 -1.08764,1.3227 -1.72451,1.88987 -0.54347,0.48399 -1.21296,0.80948 -1.77177,1.27567 -0.22665,0.18908 -0.38225,0.46657 -0.63783,0.61422 -0.31937,0.18451 -0.77685,0.0744 -1.06306,0.3071 -0.23507,0.19109 -0.13185,0.72768 -0.42522,0.8032 -0.26439,0.0681 -0.41249,-0.4638 -0.68509,-0.44885 -0.58088,0.0319 -1.34654,1.01582 -1.34654,1.11031 0,0.0945 -0.39372,1.016 -0.66145,1.48828 -0.25642,0.45233 -0.71806,0.78773 -0.8977,1.27567 -0.14754,0.40074 -0.19062,0.85483 -0.11811,1.27567 0.0796,0.46178 0.49609,1.25206 0.59058,1.27567 0.0945,0.0236 0.86946,-0.0683 1.27567,-0.21261 0.61479,-0.21844 1.12708,-0.65805 1.7009,-0.96857 0.28805,-0.15588 0.57498,-0.31535 0.87406,-0.44884 0.26175,-0.11683 0.60714,-0.098 0.8032,-0.30711 0.16355,-0.17442 0.22053,-0.44611 0.21261,-0.68508 -0.007,-0.21924 -0.32801,-0.41497 -0.23624,-0.61421 z"
           id="path1424"
           inkscape:connector-curvature="0"
           sodipodi:nodetypes="ssssssssssssssssssssssssssssss" />
        <path
           style="fill:#608349;fill-opacity:1;stroke:#000000;stroke-width:0.31900316px;stroke-linecap:butt;stroke-linejoin:miter;stroke-opacity:1"
           d="m 150.83612,190.07998 c 0.30912,0.28922 0.80095,-0.27468 1.2048,-0.4016 0.34466,-0.10832 0.71637,-0.14538 1.03944,-0.3071 0.55347,-0.27706 1.20452,-0.56025 1.48828,-1.11031 0.15889,-0.308 -0.17668,-0.75659 0.0236,-1.03943 0.2189,-0.30914 0.90673,-0.0566 1.06306,-0.4016 0.0555,-0.12257 -0.0265,-0.30848 -0.14174,-0.37798 -0.37386,-0.22548 -0.92816,-0.0646 -1.29929,0.16537 -0.33789,0.20935 -0.34558,0.75091 -0.66146,0.99218 -0.25726,0.1965 -0.62362,0.17995 -0.92132,0.30711 -0.29477,0.12591 -0.69682,0.16752 -0.85044,0.44885 -0.13257,0.24278 0.2155,0.591 0.0709,0.82682 -0.16434,0.26801 -0.66666,0.11808 -0.87406,0.35435 -0.12348,0.14067 -0.27845,0.41546 -0.14177,0.54334 z"
           id="path1426"
           inkscape:connector-curvature="0"
           sodipodi:nodetypes="ssssssssssssss" />
        <path
           style="fill:#608349;fill-opacity:1;stroke:#000000;stroke-width:0.31900316px;stroke-linecap:butt;stroke-linejoin:miter;stroke-opacity:1"
           d="m 158.96261,185.33166 c 0.14407,0.20628 0.47549,0.35431 0.7087,0.25986 0.23504,-0.0952 0.1437,-0.51384 0.33073,-0.68509 0.22976,-0.21037 0.62644,-0.14174 0.87408,-0.33073 0.17028,-0.12995 0.37132,-0.30561 0.37797,-0.51971 0.006,-0.20524 -0.23623,-0.49611 -0.33073,-0.51972 -0.0945,-0.0236 -0.35165,-0.19399 -0.54334,-0.18899 -0.2295,0.006 -0.42322,0.17832 -0.63783,0.25986 -0.1327,0.0504 -0.29395,0.0492 -0.4016,0.14174 -0.20303,0.17453 -0.31304,0.44897 -0.37798,0.70871 -0.0707,0.28266 -0.16683,0.63521 0,0.87407 z"
           id="path1428"
           inkscape:connector-curvature="0"
           sodipodi:nodetypes="sssssssssss" />
        <path
           style="fill:#608349;fill-opacity:1;stroke:#000000;stroke-width:0.31900316px;stroke-linecap:butt;stroke-linejoin:miter;stroke-opacity:1"
           d="m 164.46689,185.11904 c 0.25341,-0.27733 -0.35317,-0.67478 -0.61421,-0.94494 -0.13358,-0.13825 -0.54396,-0.15228 -0.47247,-0.33073 0.17478,-0.43626 0.93414,0.31058 1.39378,0.21262 0.12818,-0.0273 0.33837,-0.0818 0.33073,-0.21262 -0.023,-0.39376 -0.72399,-0.31819 -1.06306,-0.51971 -0.31555,-0.18754 -0.5852,-0.44525 -0.89769,-0.63784 -0.25789,-0.15894 -0.51327,-0.3374 -0.8032,-0.42522 -0.44694,-0.13538 -0.92812,-0.17681 -1.39379,-0.14174 -0.28377,0.0214 -0.5609,0.11128 -0.82682,0.21261 -0.2567,0.0978 -0.6854,0.10731 -0.73233,0.37798 -0.0276,0.1592 0.17704,0.30451 0.33073,0.35435 0.3129,0.10147 0.65243,-0.0981 0.96857,-0.18899 0.21082,-0.0606 0.39504,-0.22719 0.61421,-0.23623 0.33611,-0.0139 0.69394,0.0892 0.96856,0.28348 0.19803,0.14011 0.31605,0.37397 0.42523,0.59059 0.093,0.18458 0.0719,0.42027 0.18898,0.59059 0.15869,0.2308 0.42144,0.37188 0.65556,0.52562 0.29223,0.1919 0.69139,0.74827 0.92722,0.49018 z"
           id="path1430"
           inkscape:connector-curvature="0"
           sodipodi:nodetypes="sssssssssssssssssss" />
      </g>
    </g>
  </g>
</svg>
